<?xml version="1.0" standalone="no"?>
<!DOCTYPE svg PUBLIC "-//W3C//DTD SVG 20010904//EN"
 "http://www.w3.org/TR/2001/REC-SVG-20010904/DTD/svg10.dtd">
<svg version="1.0" xmlns="http://www.w3.org/2000/svg"
 width="512.000000pt" height="512.000000pt" viewBox="0 0 512.000000 512.000000"
 preserveAspectRatio="xMidYMid meet">
<metadata>
Created by potrace 1.14, written by Peter Selinger 2001-2017
</metadata>
<g transform="translate(0.000000,512.000000) scale(0.100000,-0.100000)"
fill="#000000" stroke="none">
<path d="M430 5113 c-178 -30 -327 -154 -398 -330 l-27 -68 0 -2150 c0 -2071
1 -2152 19 -2205 51 -153 160 -267 313 -328 l68 -27 2150 0 c2071 0 2152 1
2205 19 153 51 267 160 328 313 l27 68 0 2150 c0 2071 -1 2152 -19 2205 -51
153 -160 267 -313 328 l-68 27 -2130 1 c-1172 1 -2141 -1 -2155 -3z m3753
-898 c105 -22 171 -57 241 -127 135 -135 204 -378 194 -681 -1 -59 0 -107 5
-107 4 0 42 21 85 47 61 37 88 48 132 51 78 6 94 -13 88 -106 -8 -140 -112
-278 -266 -352 -49 -23 -74 -41 -77 -55 -2 -11 -13 -92 -25 -180 -49 -361
-121 -637 -236 -900 -236 -539 -559 -823 -1022 -900 -139 -23 -321 -17 -409
15 -171 60 -317 204 -454 447 l-46 83 -69 -81 c-152 -179 -346 -323 -537 -401
-123 -50 -221 -70 -365 -76 -158 -6 -282 9 -404 48 -323 103 -490 345 -492
715 -1 146 -1 146 160 790 183 731 206 858 185 1052 -15 130 -47 198 -111 231
-78 39 -120 25 -288 -99 -108 -81 -145 -99 -200 -99 -63 0 -77 24 -76 129 1
148 68 270 201 369 141 105 299 159 488 169 196 9 322 -32 431 -141 116 -116
174 -288 174 -516 0 -141 -7 -183 -76 -485 -143 -620 -224 -1091 -224 -1303 0
-123 49 -217 141 -267 48 -26 66 -30 155 -33 81 -3 116 0 179 17 105 29 215
88 316 169 92 74 249 246 249 273 0 9 -16 81 -35 160 -118 493 -171 1223 -106
1472 41 158 131 288 240 346 126 67 323 90 469 56 182 -43 293 -173 321 -378
12 -85 1 -283 -24 -432 -54 -319 -180 -728 -317 -1030 -27 -60 -55 -122 -61
-137 -9 -23 -3 -41 55 -160 120 -241 241 -349 411 -364 143 -13 293 52 428
186 156 155 277 371 390 698 50 146 144 521 133 531 -5 4 -38 13 -74 20 -341
66 -610 395 -610 746 0 163 53 310 150 418 132 147 369 217 583 172z"/>
<path d="M4041 3814 c-46 -58 -37 -217 18 -329 28 -57 127 -165 150 -165 11 0
21 105 21 225 0 179 -52 295 -134 295 -25 0 -40 -7 -55 -26z"/>
<path d="M2573 3575 c-80 -56 -95 -401 -37 -865 25 -205 24 -204 71 -60 78
237 116 453 117 670 1 146 -8 190 -51 240 -28 34 -65 39 -100 15z"/>
</g>
</svg>
